<?xml version="1.0" encoding="utf-8"?>
<!-- Generator: Adobe Illustrator 26.4.1, SVG Export Plug-In . SVG Version: 6.00 Build 0)  -->
<svg version="1.1" id="Layer_1" xmlns="http://www.w3.org/2000/svg" xmlns:xlink="http://www.w3.org/1999/xlink" x="0px" y="0px"
	 viewBox="0 0 1000 1000" style="enable-background:new 0 0 1000 1000;" xml:space="preserve">
<path d="M834,590c0,26.8-26.2,48.5-58.6,48.5H303.9c-32.4,0-58.6-21.7-58.6-48.5l0,0c0-26.8,26.2-48.5,58.6-48.5h471.4
	C807.7,541.5,834,563.2,834,590L834,590L834,590z"/>
<path d="M752.3,426c0,26.8-26.2,48.5-58.6,48.5H222.2c-32.4,0-58.6-21.7-58.6-48.5l0,0c0-26.8,26.2-48.5,58.6-48.5h471.4
	C726.1,377.5,752.3,399.2,752.3,426L752.3,426L752.3,426z"/>
</svg>
